Coordinates
version=1
nRows=22
nColumns=18
inDegrees=yes

Units are S.I. units (second, meters, Newtons, ...)
If the header above contains a line with 'inDegrees', this indicates whether rotational values are in degrees (yes) or radians (no).

endheader
time	ground_thorax_rot_x	ground_thorax_rot_y	ground_thorax_rot_z	ground_thorax_tx	ground_thorax_ty	ground_thorax_tz	clav_prot	clav_elev	scapula_abduction	scapula_elevation	scapula_upward_rot	scapula_winging	plane_elv	shoulder_elv	axial_rot	elbow_flexion	pro_sup
      2.31000000	      1.13341850	    -10.21421100	    -12.11328312	      0.00000000	      0.00000000	      0.00000000	    -17.93350434	     -0.72210093	     -2.47917924	     -2.25847430	     17.68771170	      2.70593928	    -10.26482568	     14.14708613	     26.32598193	      0.00000000	     34.32000000
      2.32000000	      0.75283811	    -10.20398048	    -11.91759733	      0.00000000	      0.00000000	      0.00000000	    -17.60934065	     -1.57578735	     -2.04888400	     -2.73619297	     17.08719859	      3.00474456	    -13.35362191	     14.34787706	     28.56849130	      0.00000000	     34.32000000
      2.33000000	      1.05777905	    -10.34385233	    -11.77703118	      0.00000000	      0.00000000	      0.00000000	    -17.33161870	     -1.62383023	     -1.46999025	     -2.78889015	     17.20630697	      2.93098858	    -15.53278626	     13.80938259	     38.10569039	      0.00000000	     34.32000000
      2.34000000	      1.33916630	    -10.23841048	    -11.75410564	      0.00000000	      0.00000000	      0.00000000	    -17.34882544	     -1.76832549	     -1.52891485	     -2.87210483	     17.10001844	      2.99806913	    -15.62137084	     14.12149810	     38.18404275	      0.00000000	     34.32000000
      2.35000000	      1.11225034	    -10.12879314	    -11.70483761	      0.00000000	      0.00000000	      0.00000000	    -17.31925342	     -2.29706271	     -1.56388315	     -3.17998088	     16.74062102	      3.22070540	    -17.03990156	     13.96560139	     42.42085321	      0.00000000	     34.32000000
      2.36000000	      1.28304947	    -10.13317640	    -11.70832462	      0.00000000	      0.00000000	      0.00000000	    -17.31891610	     -2.47521289	     -1.51515084	     -3.31597848	     16.74565543	      3.26655068	    -17.13812564	     14.22115229	     42.43216295	      0.00000000	     34.32000000
      2.37000000	      1.10837622	     -9.98553688	    -11.72406149	      0.00000000	      0.00000000	      0.00000000	    -17.37674581	     -3.01572871	     -1.67465830	     -3.65003100	     16.43545728	      3.50688446	    -17.54584338	     14.60440865	     41.10979239	      0.00000000	     34.32000000
      2.38000000	      1.19409403	     -9.61728336	    -11.66625878	      0.00000000	      0.00000000	      0.00000000	    -17.70336401	     -3.10105193	     -2.29809653	     -3.70279603	     16.32363946	      3.62349029	    -17.54357976	     14.76559769	     40.04903305	      0.00000000	     34.32000000
      2.39000000	      1.11873304	     -9.58928390	    -11.67256143	      0.00000000	      0.00000000	      0.00000000	    -17.65765070	     -3.21968885	     -2.34435463	     -3.72629948	     16.06904002	      3.71425074	    -16.75083240	     15.00998891	     38.54402112	      0.00000000	     34.32000000
      2.40000000	      1.19975898	     -9.51385511	    -11.67579193	      0.00000000	      0.00000000	      0.00000000	    -17.68658176	     -3.12504446	     -2.57658845	     -3.59026882	     15.80955690	      3.75984979	    -15.06191328	     15.52778477	     34.07093660	      0.00000000	     34.32000000
      2.41000000	      1.07082538	     -9.37815805	    -11.64335453	      0.00000000	      0.00000000	      0.00000000	    -17.67680289	     -3.25409957	     -2.71906498	     -3.60764065	     15.49446689	      3.87610121	    -14.76702318	     15.71300564	     33.50914084	      0.00000000	     34.32000000
      2.42000000	      1.18923096	     -9.30400687	    -11.59435866	      0.00000000	      0.00000000	      0.00000000	    -17.66989130	     -3.17345181	     -2.62413193	     -3.58907046	     15.66356632	      3.80851079	    -16.05537602	     14.95751585	     41.48597232	      0.00000000	     34.32000000
      2.43000000	      1.28005309	     -9.26211566	    -11.57001666	      0.00000000	      0.00000000	      0.00000000	    -17.66232919	     -3.19667589	     -2.61707274	     -3.60132350	     15.64381690	      3.81844577	    -16.05846179	     14.94087892	     41.48634382	      0.00000000	     34.32000000
      2.44000000	      1.23093189	     -9.06340701	    -11.59195252	      0.00000000	      0.00000000	      0.00000000	    -17.75458838	     -3.41642892	     -2.94861402	     -3.67901930	     15.27564294	      3.99376008	    -15.20096726	     15.35351337	     38.68802008	      0.00000000	     34.32000000
      2.45000000	      1.18980027	     -8.93586324	    -11.66455376	      0.00000000	      0.00000000	      0.00000000	    -17.79065354	     -3.56267650	     -3.06898220	     -3.75282880	     15.12231503	      4.08242272	    -14.78533519	     15.61882475	     35.67115124	      0.00000000	     34.32000000
      2.46000000	      1.17451610	     -8.94479072	    -11.60330625	      0.00000000	      0.00000000	      0.00000000	    -17.62230048	     -3.63226754	     -2.88354974	     -3.74284018	     14.90994061	      4.12526204	    -14.91398532	     15.79375342	     35.28176308	      0.00000000	     34.32000000
      2.47000000	      1.14429428	     -9.02366404	    -11.66376051	      0.00000000	      0.00000000	      0.00000000	    -17.41625777	     -3.81936369	     -2.59872035	     -3.82243512	     14.70570733	      4.19221525	    -15.12266020	     15.92850834	     35.47605359	      0.00000000	     34.32000000
      2.48000000	      1.21028441	     -8.97178382	    -11.66466483	      0.00000000	      0.00000000	      0.00000000	    -17.34221926	     -3.93923276	     -2.52273170	     -3.87442635	     14.56743083	      4.24833777	    -15.45121980	     16.01648839	     35.77719382	      0.00000000	     34.32000000
      2.49000000	      1.20537716	     -8.84536204	    -11.63834591	      0.00000000	      0.00000000	      0.00000000	    -17.31444543	     -4.09884669	     -2.53349739	     -3.95263003	     14.40446901	      4.33223623	    -15.98686243	     15.99065159	     36.56728021	      0.00000000	     34.32000000
      2.50000000	      1.20715493	     -8.75928537	    -11.64802838	      0.00000000	      0.00000000	      0.00000000	    -17.30317516	     -4.22281748	     -2.54171458	     -4.02189379	     14.30884360	      4.39199040	    -16.23052105	     15.89534707	     37.11290373	      0.00000000	     34.32000000
      2.51000000	      1.32168569	     -8.77139067	    -11.57413808	      0.00000000	      0.00000000	      0.00000000	    -17.31428588	     -4.15945010	     -2.49115888	     -4.01104566	     14.45180853	      4.33869625	    -17.35190184	     15.13909839	     45.02544126	      0.00000000	     34.32000000
      2.52000000	      1.27771173	     -8.91178943	    -11.64245513	      0.00000000	      0.00000000	      0.00000000	    -17.15384383	     -4.33588140	     -2.32674620	     -4.06866805	     14.18493024	      4.42720403	    -16.78386166	     15.51692863	     42.96556094	      0.00000000	     34.32000000
